#!OML:ASF H:\Punching\Project 1\Capture day 1\Session 1\female.ASF
:FULLY-SPECIFIED
:DEGREES
1569
root -0.471392 14.7876 0.874729 10.541 -17.0884 -3.40736
lowerback 1.84057 0.912399 -0.777723
upperback -5.45031 1.25093 1.41553
thorax -6.75017 0.697655 1.81663
lowerneck -9.99951 -4.84918 1.81293
upperneck 30.4326 -8.99029 4.25833
head 11.7368 -3.40696 0.0944537
rclavicle -6.3014e-014 -1.24737e-014
rhumerus 15.6056 7.66147 -73.7296
rradius 110.881
rwrist -45.2985
rhand -19.2957 -22.2076
rfingers 7.12502
rthumb 7.01967 -52.0712
lclavicle -6.3014e-014 -1.24737e-014
lhumerus 22.6398 -39.1438 79.5637
lradius 130.353
lwrist 16.3531
lhand -21.8637 10.1354
lfingers 7.12502
lthumb 4.54043 40.0668
rfemur 5.26504 -2.69259 8.49108
rtibia 13.0762
rfoot -18.3743 -21.15
rtoes -18.2439
lfemur -36.7013 4.15536 -1.46756
ltibia 39.1658
lfoot -6.72548 16.4915
ltoes -3.57554
1570
root -0.446291 14.7888 0.894328 10.5947 -18.9877 -3.5929
lowerback 1.96131 0.743456 -0.890516
upperback -5.41137 1.01118 1.33639
thorax -6.76946 0.581632 1.81479
lowerneck -10.4586 -4.04698 2.68939
upperneck 30.8654 -8.01846 3.96874
head 11.9371 -2.88769 -0.0519045
rclavicle -1.79791e-014 -3.03147e-014
rhumerus 13.573 8.86148 -74.29
rradius 114.587
rwrist -44.7399
rhand -18.3339 -21.214
rfingers 7.12502
rthumb 7.94808 -51.0446
lclavicle -1.79791e-014 -3.03147e-014
lhumerus 22.7577 -38.7151 79.2714
lradius 130.509
lwrist 16.4511
lhand -21.8897 10.252
lfingers 7.12502
lthumb 4.51532 40.1839
rfemur 4.45356 -2.27761 8.03385
rtibia 13.3914
rfoot -18.2313 -19.8254
rtoes -18.8463
lfemur -35.8972 5.07531 -1.3165
ltibia 39.5213
lfoot -7.40395 17.117
ltoes -3.22221
1571
root -0.421068 14.7886 0.915444 10.6237 -20.8294 -3.75791
lowerback 2.09278 0.555777 -1.0187
upperback -5.36724 0.745089 1.25502
thorax -6.78838 0.453416 1.8219
lowerneck -10.8453 -3.24066 3.55901
upperneck 31.242 -7.04369 3.70177
head 12.1185 -2.36936 -0.184355
rclavicle -9.07266e-015 1.39149e-014
rhumerus 11.6549 9.96629 -74.8021
rradius 118.048
rwrist -44.3023
rhand -17.4424 -20.5045
rfingers 7.12502
rthumb 8.80847 -50.3006
lclavicle -9.07266e-015 1.39149e-014
lhumerus 22.8491 -38.2693 78.9829
lradius 130.682
lwrist 16.5547
lhand -21.8885 10.2598
lfingers 7.12502
lthumb 4.51648 40.1917
rfemur 3.72607 -1.8533 7.57923
rtibia 13.6185
rfoot -18.1013 -18.5599
rtoes -19.3829
lfemur -35.0841 5.9635 -1.2016
ltibia 39.8798
lfoot -8.08452 17.7159
ltoes -2.94021
1572
root -0.396302 14.7871 0.937184 10.6254 -22.569 -3.88524
lowerback 2.23005 0.343948 -1.1741
upperback -5.31199 0.444757 1.1724
thorax -6.79733 0.309677 1.84643
lowerneck -11.178 -2.44026 4.41077
upperneck 31.5439 -6.07162 3.44637
head 12.2755 -1.85705 -0.306273
rclavicle -2.66371e-014 -8.34896e-015
rhumerus 9.88921 10.9486 -75.2735
rradius 121.25
rwrist -43.975
rhand -16.6668 -20.0032
rfingers 7.12502
rthumb 9.55686 -49.7665
lclavicle -2.66371e-014 -8.34896e-015
lhumerus 22.9408 -37.793 78.6824
lradius 130.874
lwrist 16.6863
lhand -21.8592 10.2024
lfingers 7.12502
lthumb 4.54472 40.1336
rfemur 3.07487 -1.42585 7.12738
rtibia 13.7936
rfoot -18.0026 -17.3996
rtoes -19.8536
lfemur -34.2923 6.77097 -1.13115
ltibia 40.2314
lfoot -8.75035 18.3032
ltoes -2.70514
1573
root -0.372343 14.7844 0.958374 10.6046 -24.154 -3.96609
lowerback 2.36175 0.100178 -1.36098
upperback -5.23202 0.100013 1.09506
thorax -6.77433 0.145495 1.89844
lowerneck -11.4795 -1.65925 5.21481
upperneck 31.7389 -5.11295 3.20723
head 12.399 -1.35877 -0.412474
rclavicle 2.47176e-014 -7.95139e-016
rhumerus 8.33163 11.7861 -75.6994
rradius 124.166
rwrist -43.7489
rhand -15.9912 -19.6294
rfingers 7.12502
rthumb 10.2087 -49.3617
lclavicle 2.47176e-014 -7.95139e-016
lhumerus 23.0899 -37.2538 78.3367
lradius 131.083
lwrist 16.8811
lhand -21.8847 10.1874
lfingers 7.12502
lthumb 4.5201 40.1192
rfemur 2.49249 -1.01009 6.686
rtibia 13.9461
rfoot -17.9475 -16.3817
rtoes -20.2377
lfemur -33.566 7.4512 -1.10672
ltibia 40.5729
lfoot -9.38684 18.8863
ltoes -2.47335
1574
root -0.349459 14.7806 0.978417 10.5763 -25.532 -4.00763
lowerback 2.46903 -0.172942 -1.55126
upperback -5.1346 -0.284104 1.01576
thorax -6.71559 -0.0385157 1.95383
lowerneck -11.7339 -0.916441 5.98234
upperneck 31.8117 -4.18869 2.96791
head 12.4756 -0.885289 -0.513738
rclavicle -2.64228e-014 -1.82882e-014
rhumerus 6.98297 12.4255 -76.0977
rradius 126.784
rwrist -43.5894
rhand -15.4035 -19.3431
rfingers 7.12502
rthumb 10.7755 -49.0467
lclavicle -2.64228e-014 -1.82882e-014
lhumerus 23.2968 -36.69 77.9445
lradius 131.311
lwrist 17.1408
lhand -21.8957 10.1856
lfingers 7.12502
lthumb 4.50948 40.1176
rfemur 1.98037 -0.623898 6.27532
rtibia 14.0849
rfoot -17.9366 -15.5369
rtoes -20.5433
lfemur -32.9558 7.96498 -1.11731
ltibia 40.9092
lfoot -9.97639 19.4682
ltoes -2.23314
1575
root -0.327906 14.7758 0.997238 10.5528 -26.6625 -4.02268
lowerback 2.53387 -0.478014 -1.72307
upperback -5.01596 -0.708847 0.939547
thorax -6.60653 -0.244356 2.00481
lowerneck -11.9585 -0.22084 6.71528
upperneck 31.7644 -3.30578 2.70523
head 12.5069 -0.441653 -0.620835
rclavicle 5.19636e-014 -1.19271e-015
rhumerus 5.88131 12.8528 -76.477
rradius 129.081
rwrist -43.4644
rhand -14.8396 -19.1761
rfingers 7.12502
rthumb 11.3195 -48.8506
lclavicle 5.19636e-014 -1.19271e-015
lhumerus 23.5621 -36.1193 77.5054
lradius 131.567
lwrist 17.4686
lhand -21.9495 10.3227
lfingers 7.12502
lthumb 4.45751 40.2558
rfemur 1.55481 -0.274242 5.91628
rtibia 14.1969
rfoot -17.9559 -14.8907
rtoes -20.7712
lfemur -32.4997 8.29394 -1.15036
ltibia 41.2516
lfoot -10.5024 20.0375
ltoes -2.00511
1576
root -0.307897 14.7696 1.01518 10.5422 -27.516 -4.02948
lowerback 2.55022 -0.809709 -1.84826
upperback -4.8837 -1.16467 0.870688
thorax -6.45285 -0.468691 2.03812
lowerneck -12.1414 0.411241 7.40341
upperneck 31.6139 -2.4834 2.41269
head 12.4953 -0.0378126 -0.737554
rclavicle -3.13148e-014 -4.37326e-015
rhumerus 5.02852 13.0613 -76.8241
rradius 131.052
rwrist -43.3543
rhand -14.2957 -19.155
rfingers 7.12502
rthumb 11.844 -48.8001
lclavicle -3.13148e-014 -4.37326e-015
lhumerus 23.8633 -35.5686 77.0516
lradius 131.847
lwrist 17.8635
lhand -22.0326 10.546
lfingers 7.12502
lthumb 4.3773 40.4808
rfemur 1.24836 0.0227793 5.62779
rtibia 14.2498
rfoot -17.9841 -14.4476
rtoes -20.9479
lfemur -32.2177 8.43849 -1.18952
ltibia 41.6138
lfoot -10.9572 20.5724
ltoes -1.80819
1577
root -0.289859 14.7623 1.0322 10.5588 -28.0804 -4.06022
lowerback 2.52826 -1.15861 -1.89692
upperback -4.75398 -1.63703 0.815886
thorax -6.27982 -0.705176 2.0422
lowerneck -12.2616 0.967866 8.04328
upperneck 31.3812 -1.73739 2.09018
head 12.4431 0.319415 -0.866083
rclavicle 3.3298e-014 1.86858e-014
rhumerus 4.41067 13.0719 -77.1349
rradius 132.705
rwrist -43.2422
rhand -13.8105 -19.306
rfingers 7.12502
rthumb 12.3118 -48.9235
lclavicle 3.3298e-014 1.86858e-014
lhumerus 24.1121 -35.0709 76.6699
lradius 132.129
lwrist 18.3042
lhand -22.14 10.8233
lfingers 7.12502
lthumb 4.27356 40.7601
rfemur 1.08668 0.276712 5.44428
rtibia 14.2076
rfoot -17.9921 -14.2166
rtoes -21.0685
lfemur -32.1177 8.41862 -1.20188
ltibia 42.0046
lfoot -11.3319 21.0469
ltoes -1.66436
1578
root -0.274173 14.7538 1.04847 10.6116 -28.3544 -4.13441
lowerback 2.4776 -1.51885 -1.86324
upperback -4.64177 -2.11742 0.792627
thorax -6.11039 -0.948803 2.03125
lowerneck -12.322 1.4399 8.60229
upperneck 31.1128 -1.07913 1.74782
head 12.3678 0.624291 -0.999283
rclavicle 1.90728e-015 1.35174e-014
rhumerus 4.01888 12.9399 -77.3812
rradius 134.055
rwrist -43.1181
rhand -13.4499 -19.6654
rfingers 7.12502
rthumb 12.6595 -49.2618
lclavicle 1.90728e-015 1.35174e-014
lhumerus 24.2823 -34.6369 76.4012
lradius 132.407
lwrist 18.7674
lhand -22.2907 11.1398
lfingers 7.12502
lthumb 4.12803 41.0796
rfemur 1.09408 0.482996 5.3836
rtibia 14.0312
rfoot -17.9441 -14.2089
rtoes -21.1347
lfemur -32.1961 8.26375 -1.16807
ltibia 42.4266
lfoot -11.6221 21.432
ltoes -1.60559
1579
root -0.261287 14.7442 1.06334 10.7085 -28.3452 -4.26361
lowerback 2.41381 -1.87746 -1.75071
upperback -4.56307 -2.58933 0.807598
thorax -5.97205 -1.19037 2.01371
lowerneck -12.3321 1.81543 9.05947
upperneck 30.8532 -0.532031 1.41085
head 12.2867 0.868939 -1.12788
rclavicle -7.31706e-014 -1.31198e-014
rhumerus 3.81785 12.7173 -77.5433
rradius 135.13
rwrist -42.9684
rhand -13.2954 -20.1871
rfingers 7.12502
rthumb 12.8084 -49.7742
lclavicle -7.31706e-014 -1.31198e-014
lhumerus 24.3395 -34.2931 76.2939
lradius 132.659
lwrist 19.2134
lhand -22.4519 11.4119
lfingers 7.12502
lthumb 3.97236 41.3546
rfemur 1.27644 0.653602 5.45923
rtibia 13.6969
rfoot -17.8295 -14.4166
rtoes -21.1291
lfemur -32.4447 8.00552 -1.07261
ltibia 42.8688
lfoot -11.8249 21.701
ltoes -1.6272
1580
root -0.251545 14.7339 1.07764 10.8371 -28.0858 -4.44759
lowerback 2.34594 -2.2167 -1.56886
upperback -4.52024 -3.0302 0.860448
thorax -5.87382 -1.41797 1.99383
lowerneck -12.3078 2.08727 9.39367
upperneck 30.6338 -0.115198 1.11436
head 12.2123 1.0481 -1.23815
rclavicle -1.11139e-013 -3.18055e-015
rhumerus 3.77186 12.4522 -77.6025
rradius 135.962
rwrist -42.7965
rhand -13.4524 -20.7566
rfingers 7.12502
rthumb 12.6571 -50.3531
lclavicle -1.11139e-013 -3.18055e-015
lhumerus 24.2953 -34.0531 76.349
lradius 132.867
lwrist 19.5984
lhand -22.607 11.6181
lfingers 7.12502
lthumb 3.82263 41.5635
rfemur 1.64138 0.796495 5.66457
rtibia 13.1907
rfoot -17.6413 -14.8138
rtoes -21.0568
lfemur -32.8206 7.67882 -0.913151
ltibia 43.3136
lfoot -11.9505 21.8382
ltoes -1.72348
1581
root -0.245321 14.7237 1.09003 11.0051 -27.5725 -4.66193
lowerback 2.26205 -2.53192 -1.34695
upperback -4.52099 -3.43605 0.942855
thorax -5.81647 -1.62851 1.97931
lowerneck -12.271 2.24995 9.60287
upperneck 30.4796 0.154378 0.878537
head 12.1559 1.15743 -1.32485
rclavicle 3.6022e-015 1.27222e-014
rhumerus 3.85397 12.1624 -77.5613
rradius 136.592
rwrist -42.5885
rhand -13.9153 -21.3731
rfingers 7.12502
rthumb 12.2107 -50.9966
lclavicle 3.6022e-015 1.27222e-014
lhumerus 24.1719 -33.929 76.551
lradius 133.019
lwrist 19.9017
lhand -22.7381 11.7492
lfingers 7.12502
lthumb 3.69605 41.6969
rfemur 2.16826 0.899745 5.98462
rtibia 12.5047
rfoot -17.3789 -15.3878
rtoes -20.9082
lfemur -33.337 7.29988 -0.710533
ltibia 43.7343
lfoot -11.985 21.8249
ltoes -1.89605
1582
root -0.2428 14.7142 1.10103 11.1915 -26.8253 -4.87984
lowerback 2.15448 -2.81308 -1.11082
upperback -4.55783 -3.79527 1.04419
thorax -5.78713 -1.81564 1.97248
lowerneck -12.2432 2.30606 9.68875
upperneck 30.3938 0.271495 0.724498
head 12.1208 1.19763 -1.38112
rclavicle -4.32706e-015 1.66979e-014
rhumerus 4.04905 11.8729 -77.4254
rradius 137.036
rwrist -42.3229
rhand -14.6763 -21.9535
rfingers 7.12502
rthumb 11.477 -51.6193
lclavicle -4.32706e-015 1.66979e-014
lhumerus 23.995 -33.9278 76.8797
lradius 133.102
lwrist 20.0916
lhand -22.8278 11.7949
lfingers 7.12502
lthumb 3.60936 41.7441
rfemur 2.85867 0.951754 6.39001
rtibia 11.6348
rfoot -17.0501 -16.0981
rtoes -20.6972
lfemur -33.9613 6.88362 -0.490641
ltibia 44.1057
lfoot -11.9351 21.6541
ltoes -2.136
